<?xml version="1.0" encoding="UTF-8"?>
<svg width="700pt" height="700pt" version="1.1" viewBox="0 0 700 700" xmlns="http://www.w3.org/2000/svg" xmlns:xlink="http://www.w3.org/1999/xlink">
 <defs>
  <symbol id="v" overflow="visible">
   <path d="m14.422-0.85938c-0.74219 0.38672-1.5156 0.67969-2.3281 0.875-0.80469 0.19531-1.6406 0.29688-2.5156 0.29688-2.6172 0-4.6875-0.72656-6.2188-2.1875-1.5234-1.4688-2.2812-3.4531-2.2812-5.9531 0-2.5078 0.75781-4.4922 2.2812-5.9531 1.5312-1.4688 3.6016-2.2031 6.2188-2.2031 0.875 0 1.7109 0.10156 2.5156 0.29688 0.8125 0.19922 1.5859 0.49219 2.3281 0.875v3.25c-0.75-0.50781-1.4922-0.88281-2.2188-1.125-0.73047-0.23828-1.4961-0.35938-2.2969-0.35938-1.4492 0-2.5898 0.46484-3.4219 1.3906-0.82422 0.92969-1.2344 2.2031-1.2344 3.8281 0 1.6172 0.41016 2.8867 1.2344 3.8125 0.83203 0.92969 1.9727 1.3906 3.4219 1.3906 0.80078 0 1.5664-0.11719 2.2969-0.35938 0.72656-0.23828 1.4688-0.61328 2.2188-1.125z"/>
  </symbol>
  <symbol id="d" overflow="visible">
   <path d="m10.562-8.5625c-0.33594-0.15625-0.66797-0.26953-1-0.34375-0.32422-0.070312-0.64844-0.10938-0.96875-0.10938-0.96875 0-1.7148 0.3125-2.2344 0.9375-0.52344 0.61719-0.78125 1.5-0.78125 2.6562v5.4219h-3.7656v-11.781h3.7656v1.9375c0.47656-0.76953 1.0312-1.332 1.6562-1.6875 0.625-0.35156 1.3789-0.53125 2.2656-0.53125 0.125 0 0.25781 0.007812 0.40625 0.015625 0.14453 0.011719 0.35938 0.039063 0.64062 0.078125z"/>
  </symbol>
  <symbol id="c" overflow="visible">
   <path d="m13.562-5.9219v1.0781h-8.7969c0.09375 0.88672 0.41016 1.5469 0.95312 1.9844 0.55078 0.4375 1.3164 0.65625 2.2969 0.65625 0.78906 0 1.5977-0.11328 2.4219-0.34375 0.83203-0.23828 1.6875-0.59375 2.5625-1.0625v2.8906c-0.88672 0.34375-1.7773 0.60156-2.6719 0.76562-0.88672 0.17578-1.7734 0.26562-2.6562 0.26562-2.1367 0-3.7969-0.53906-4.9844-1.625-1.1797-1.082-1.7656-2.6016-1.7656-4.5625 0-1.9141 0.57812-3.4258 1.7344-4.5312 1.1641-1.1016 2.7656-1.6562 4.7969-1.6562 1.8516 0 3.332 0.55859 4.4375 1.6719 1.1133 1.1172 1.6719 2.6055 1.6719 4.4688zm-3.875-1.25c0-0.71875-0.21094-1.2969-0.625-1.7344-0.41797-0.4375-0.96094-0.65625-1.625-0.65625-0.73047 0-1.3242 0.21094-1.7812 0.625-0.46094 0.40625-0.74609 0.99609-0.85938 1.7656z"/>
  </symbol>
  <symbol id="f" overflow="visible">
   <path d="m7.0938-5.2969c-0.79297 0-1.3867 0.13672-1.7812 0.40625-0.39844 0.26172-0.59375 0.65234-0.59375 1.1719 0 0.48047 0.15625 0.85547 0.46875 1.125 0.32031 0.26172 0.76953 0.39062 1.3438 0.39062 0.70703 0 1.3008-0.25 1.7812-0.75 0.48828-0.50781 0.73438-1.1484 0.73438-1.9219v-0.42188zm5.75-1.4219v6.7188h-3.7969v-1.75c-0.51172 0.71875-1.0859 1.2461-1.7188 1.5781-0.625 0.32031-1.3906 0.48438-2.2969 0.48438-1.2188 0-2.2109-0.35156-2.9688-1.0625-0.76172-0.71875-1.1406-1.6445-1.1406-2.7812 0-1.3828 0.47266-2.3945 1.4219-3.0312 0.95703-0.64453 2.4531-0.96875 4.4844-0.96875h2.2188v-0.29688c0-0.59375-0.24219-1.0312-0.71875-1.3125-0.46875-0.28125-1.1992-0.42188-2.1875-0.42188-0.80469 0-1.5547 0.085938-2.25 0.25-0.69922 0.15625-1.3438 0.39844-1.9375 0.71875v-2.8594c0.8125-0.19531 1.625-0.34766 2.4375-0.45312 0.8125-0.10156 1.625-0.15625 2.4375-0.15625 2.125 0 3.6562 0.42188 4.5938 1.2656 0.94531 0.83594 1.4219 2.1953 1.4219 4.0781z"/>
  </symbol>
  <symbol id="b" overflow="visible">
   <path d="m5.9219-15.125v3.3438h3.875v2.7031h-3.875v4.9844c0 0.55469 0.10938 0.92969 0.32812 1.125 0.21875 0.1875 0.64453 0.28125 1.2812 0.28125h1.9375v2.6875h-3.2188c-1.4922 0-2.5469-0.30469-3.1719-0.92188-0.61719-0.625-0.92188-1.6797-0.92188-3.1719v-4.9844h-1.875v-2.7031h1.875v-3.3438z"/>
  </symbol>
  <symbol id="k" overflow="visible">
   <path d="m9.8125-10.047v-6.3125h3.7969v16.359h-3.7969v-1.7031c-0.51172 0.69922-1.0781 1.2109-1.7031 1.5312s-1.3516 0.48438-2.1719 0.48438c-1.4492 0-2.6406-0.57812-3.5781-1.7344-0.92969-1.1562-1.3906-2.6406-1.3906-4.4531s0.46094-3.2969 1.3906-4.4531c0.9375-1.1562 2.1289-1.7344 3.5781-1.7344 0.8125 0 1.5312 0.16797 2.1562 0.5 0.63281 0.32422 1.207 0.82812 1.7188 1.5156zm-2.4688 7.625c0.80078 0 1.4102-0.28906 1.8281-0.875 0.42578-0.59375 0.64062-1.4531 0.64062-2.5781s-0.21484-1.9766-0.64062-2.5625c-0.41797-0.59375-1.0273-0.89062-1.8281-0.89062-0.80469 0-1.418 0.29688-1.8438 0.89062-0.41797 0.58594-0.625 1.4375-0.625 2.5625s0.20703 1.9844 0.625 2.5781c0.42578 0.58594 1.0391 0.875 1.8438 0.875z"/>
  </symbol>
  <symbol id="e" overflow="visible">
   <path d="m8.0781-2.4219c0.80078 0 1.4141-0.28906 1.8438-0.875 0.42578-0.59375 0.64062-1.4531 0.64062-2.5781s-0.21484-1.9766-0.64062-2.5625c-0.42969-0.59375-1.043-0.89062-1.8438-0.89062-0.8125 0-1.4336 0.29688-1.8594 0.89062-0.42969 0.59375-0.64062 1.4492-0.64062 2.5625 0 1.1172 0.21094 1.9688 0.64062 2.5625 0.42578 0.59375 1.0469 0.89062 1.8594 0.89062zm-2.5-7.625c0.50781-0.6875 1.082-1.1914 1.7188-1.5156 0.63281-0.33203 1.3594-0.5 2.1719-0.5 1.457 0 2.6484 0.57812 3.5781 1.7344 0.92578 1.1562 1.3906 2.6406 1.3906 4.4531s-0.46484 3.2969-1.3906 4.4531c-0.92969 1.1562-2.1211 1.7344-3.5781 1.7344-0.8125 0-1.5391-0.16406-2.1719-0.48438-0.63672-0.33203-1.2109-0.84375-1.7188-1.5312v1.7031h-3.7656v-16.359h3.7656z"/>
  </symbol>
  <symbol id="j" overflow="visible">
   <path d="m0.26562-11.781h3.7656l3.1562 8 2.6875-8h3.7656l-4.9531 12.891c-0.49219 1.3125-1.0703 2.2266-1.7344 2.75-0.65625 0.51953-1.5312 0.78125-2.625 0.78125h-2.1719v-2.4688h1.1719c0.64453 0 1.1094-0.10547 1.3906-0.3125 0.28906-0.19922 0.51953-0.55859 0.6875-1.0781l0.10938-0.32812z"/>
  </symbol>
  <symbol id="i" overflow="visible">
   <path d="m6.0312-12.641v9.5781h1.4375c1.6562 0 2.9219-0.40625 3.7969-1.2188 0.875-0.82031 1.3125-2.0156 1.3125-3.5781s-0.4375-2.75-1.3125-3.5625c-0.86719-0.8125-2.1328-1.2188-3.7969-1.2188zm-4.0625-3.0625h4.2812c2.375 0 4.1445 0.17188 5.3125 0.51562 1.1758 0.34375 2.1797 0.92188 3.0156 1.7344 0.72656 0.71094 1.2695 1.5273 1.625 2.4531 0.36328 0.91797 0.54688 1.9648 0.54688 3.1406 0 1.1797-0.18359 2.2344-0.54688 3.1719-0.35547 0.92969-0.89844 1.7461-1.625 2.4531-0.84375 0.8125-1.8555 1.3906-3.0312 1.7344-1.1797 0.33594-2.9453 0.5-5.2969 0.5h-4.2812z"/>
  </symbol>
  <symbol id="u" overflow="visible">
   <path d="m1.8125-11.781h3.7656v11.781h-3.7656zm0-4.5781h3.7656v3.0781h-3.7656z"/>
  </symbol>
  <symbol id="h" overflow="visible">
   <path d="m13.641-7.1719v7.1719h-3.7812v-5.4844c0-1.0195-0.027344-1.7227-0.078125-2.1094-0.042969-0.38281-0.11719-0.66406-0.21875-0.84375-0.15625-0.25-0.35938-0.44141-0.60938-0.57812-0.25-0.13281-0.53906-0.20312-0.85938-0.20312-0.78125 0-1.3984 0.30469-1.8438 0.90625-0.44922 0.60547-0.67188 1.4453-0.67188 2.5156v5.7969h-3.7656v-11.781h3.7656v1.7344c0.5625-0.6875 1.1602-1.1914 1.7969-1.5156 0.64453-0.33203 1.3516-0.5 2.125-0.5 1.3516 0 2.3789 0.41797 3.0781 1.25 0.70703 0.83594 1.0625 2.0469 1.0625 3.6406z"/>
  </symbol>
  <symbol id="a" overflow="visible">
   <path d="m7.4062-9.375c-0.83594 0-1.4688 0.30469-1.9062 0.90625-0.4375 0.60547-0.65625 1.4688-0.65625 2.5938s0.21875 1.9922 0.65625 2.5938c0.4375 0.59375 1.0703 0.89062 1.9062 0.89062 0.82031 0 1.4531-0.29688 1.8906-0.89062 0.4375-0.60156 0.65625-1.4688 0.65625-2.5938s-0.21875-1.9883-0.65625-2.5938c-0.4375-0.60156-1.0703-0.90625-1.8906-0.90625zm0-2.6875c2.0312 0 3.6133 0.54688 4.75 1.6406 1.1328 1.0938 1.7031 2.6094 1.7031 4.5469s-0.57031 3.4531-1.7031 4.5469c-1.1367 1.0938-2.7188 1.6406-4.75 1.6406s-3.6211-0.54688-4.7656-1.6406c-1.1484-1.0938-1.7188-2.6094-1.7188-4.5469s0.57031-3.4531 1.7188-4.5469c1.1445-1.0938 2.7344-1.6406 4.7656-1.6406z"/>
  </symbol>
  <symbol id="t" overflow="visible">
   <path d="m11-11.406v2.8594c-0.80469-0.33203-1.5781-0.58203-2.3281-0.75-0.75-0.17578-1.4609-0.26562-2.125-0.26562-0.71094 0-1.2422 0.09375-1.5938 0.28125-0.34375 0.17969-0.51562 0.44922-0.51562 0.8125 0 0.30469 0.12891 0.53906 0.39062 0.70312 0.25781 0.15625 0.73438 0.27734 1.4219 0.35938l0.65625 0.09375c1.9258 0.24219 3.2227 0.64062 3.8906 1.2031 0.66406 0.5625 1 1.4453 1 2.6406 0 1.25-0.46484 2.1953-1.3906 2.8281-0.92969 0.63672-2.3086 0.95312-4.1406 0.95312-0.78125 0-1.5898-0.0625-2.4219-0.1875-0.82422-0.125-1.6719-0.3125-2.5469-0.5625v-2.8594c0.75 0.36719 1.5156 0.64062 2.2969 0.82812 0.78906 0.17969 1.5938 0.26562 2.4062 0.26562 0.73828 0 1.2891-0.097656 1.6562-0.29688 0.375-0.20703 0.5625-0.50781 0.5625-0.90625 0-0.33203-0.13281-0.58203-0.39062-0.75-0.25-0.16406-0.75781-0.29688-1.5156-0.39062l-0.67188-0.078125c-1.668-0.20703-2.8398-0.59375-3.5156-1.1562-0.67969-0.57031-1.0156-1.4375-1.0156-2.5938 0-1.25 0.42578-2.1758 1.2812-2.7812 0.85156-0.60156 2.1641-0.90625 3.9375-0.90625 0.69531 0 1.4258 0.054688 2.1875 0.15625 0.75781 0.10547 1.5859 0.27344 2.4844 0.5z"/>
  </symbol>
  <symbol id="g" overflow="visible">
   <path d="m9.5625-16.359v2.4688h-2.0938c-0.53125 0-0.90234 0.10156-1.1094 0.29688-0.21094 0.1875-0.3125 0.52344-0.3125 1v0.8125h3.2188v2.7031h-3.2188v9.0781h-3.7656v-9.0781h-1.875v-2.7031h1.875v-0.8125c0-1.2812 0.35156-2.2266 1.0625-2.8438 0.71875-0.61328 1.8281-0.92188 3.3281-0.92188z"/>
  </symbol>
  <symbol id="s" overflow="visible">
   <path d="m1.9688-15.703h4.0625v12.641h7.0938v3.0625h-11.156z"/>
  </symbol>
  <symbol id="r" overflow="visible">
   <path d="m12.719-9.8125c0.47656-0.72656 1.0469-1.2852 1.7031-1.6719 0.65625-0.38281 1.375-0.57812 2.1562-0.57812 1.3516 0 2.3828 0.41797 3.0938 1.25 0.70703 0.83594 1.0625 2.0469 1.0625 3.6406v7.1719h-3.7812v-6.1406-0.28125c0.007813-0.10156 0.015625-0.24219 0.015625-0.42188 0-0.83203-0.125-1.4375-0.375-1.8125-0.24219-0.375-0.63672-0.5625-1.1875-0.5625-0.71094 0-1.2617 0.29688-1.6562 0.89062-0.38672 0.58594-0.58594 1.4336-0.59375 2.5469v5.7812h-3.7812v-6.1406c0-1.3008-0.11719-2.1406-0.34375-2.5156-0.23047-0.375-0.63281-0.5625-1.2031-0.5625-0.71875 0-1.2773 0.29688-1.6719 0.89062-0.38672 0.59375-0.57812 1.4375-0.57812 2.5312v5.7969h-3.7969v-11.781h3.7969v1.7344c0.45703-0.66406 0.98438-1.1641 1.5781-1.5 0.60156-0.34375 1.2656-0.51562 1.9844-0.51562 0.8125 0 1.5312 0.19922 2.1562 0.59375 0.625 0.39844 1.0977 0.94922 1.4219 1.6562z"/>
  </symbol>
  <symbol id="q" overflow="visible">
   <path d="m13.641-7.1719v7.1719h-3.7812v-5.4688c0-1.0312-0.027344-1.7383-0.078125-2.125-0.042969-0.38281-0.11719-0.66406-0.21875-0.84375-0.15625-0.25-0.35938-0.44141-0.60938-0.57812-0.25-0.13281-0.53906-0.20312-0.85938-0.20312-0.78125 0-1.3984 0.30469-1.8438 0.90625-0.44922 0.60547-0.67188 1.4453-0.67188 2.5156v5.7969h-3.7656v-16.359h3.7656v6.3125c0.5625-0.6875 1.1602-1.1914 1.7969-1.5156 0.64453-0.33203 1.3516-0.5 2.125-0.5 1.3516 0 2.3789 0.41797 3.0781 1.25 0.70703 0.83594 1.0625 2.0469 1.0625 3.6406z"/>
  </symbol>
  <symbol id="p" overflow="visible">
   <path d="m1.9688-15.703h4.5312l5.7031 10.766v-10.766h3.8438v15.703h-4.5312l-5.7031-10.766v10.766h-3.8438z"/>
  </symbol>
  <symbol id="o" overflow="visible">
   <path d="m1.6875-4.5781v-7.2031h3.7812v1.1875c0 0.63672-0.007812 1.4375-0.015625 2.4062v1.9219c0 0.94922 0.019531 1.6328 0.0625 2.0469 0.050781 0.41797 0.13281 0.71875 0.25 0.90625 0.15625 0.25 0.35938 0.44531 0.60938 0.57812 0.25 0.125 0.53516 0.1875 0.85938 0.1875 0.78125 0 1.3945-0.30078 1.8438-0.90625 0.44531-0.60156 0.67188-1.4414 0.67188-2.5156v-5.8125h3.7656v11.781h-3.7656v-1.7031c-0.5625 0.6875-1.1641 1.1992-1.7969 1.5312-0.63672 0.32031-1.3359 0.48438-2.0938 0.48438-1.3672 0-2.4023-0.41406-3.1094-1.25-0.71094-0.84375-1.0625-2.0547-1.0625-3.6406z"/>
  </symbol>
  <symbol id="n" overflow="visible">
   <path d="m1.9688-15.703h6.7188c2 0 3.5312 0.44922 4.5938 1.3438 1.0703 0.88672 1.6094 2.1484 1.6094 3.7812 0 1.6484-0.53906 2.9141-1.6094 3.7969-1.0625 0.88672-2.5938 1.3281-4.5938 1.3281h-2.6562v5.4531h-4.0625zm4.0625 2.9375v4.3906h2.2344c0.78125 0 1.3828-0.19141 1.8125-0.57812 0.42578-0.38281 0.64062-0.92578 0.64062-1.625 0-0.69531-0.21484-1.2344-0.64062-1.6094-0.42969-0.38281-1.0312-0.57812-1.8125-0.57812z"/>
  </symbol>
  <symbol id="m" overflow="visible">
   <path d="m1.8125-11.781h3.7656v11.578c0 1.5703-0.38281 2.7695-1.1406 3.5938-0.76172 0.83203-1.8594 1.25-3.2969 1.25h-1.8594v-2.4688h0.65625c0.71875 0 1.207-0.16406 1.4688-0.48438 0.26953-0.32422 0.40625-0.95312 0.40625-1.8906zm0-4.5781h3.7656v3.0781h-3.7656z"/>
  </symbol>
  <symbol id="l" overflow="visible">
   <path d="m11.328-11.406v3.0625c-0.51172-0.34375-1.0273-0.59766-1.5469-0.76562-0.51172-0.17578-1.0469-0.26562-1.6094-0.26562-1.043 0-1.8594 0.30859-2.4531 0.92188-0.58594 0.61719-0.875 1.4766-0.875 2.5781 0 1.1055 0.28906 1.9648 0.875 2.5781 0.59375 0.60547 1.4102 0.90625 2.4531 0.90625 0.59375 0 1.1562-0.082031 1.6875-0.25 0.53125-0.17578 1.0195-0.4375 1.4688-0.78125v3.0781c-0.59375 0.21875-1.1953 0.37891-1.7969 0.48438-0.60547 0.11328-1.2148 0.17188-1.8281 0.17188-2.125 0-3.7891-0.54688-4.9844-1.6406-1.1992-1.0938-1.7969-2.6094-1.7969-4.5469 0-1.9453 0.59766-3.4609 1.7969-4.5469 1.1953-1.0938 2.8594-1.6406 4.9844-1.6406 0.61328 0 1.2188 0.058594 1.8125 0.17188 0.60156 0.10547 1.207 0.26562 1.8125 0.48438z"/>
  </symbol>
 </defs>
 <g>
  <path d="m598.45 130.21c-3.1836-19.02-19.496-32.824-38.781-32.824-19.52 0-36.262 14.582-38.949 33.91-0.32422 2.3555 1.3203 4.5312 3.6758 4.8594 2.3516 0.33203 4.5312-1.3203 4.8594-3.6719 2.0938-15.098 15.172-26.48 30.414-26.48 15.059 0 27.797 10.781 30.285 25.633l31.109 185.77c1.1016 6.5781-0.73828 13.277-5.0469 18.367-3.4258 4.0469-8.1172 6.6914-13.246 7.6172-2.3477-20.973-20.168-37.336-41.754-37.336l-146.18-0.003906c-22.34 0-40.613 17.531-41.906 39.555-22.492 14.273-40.758 3.8438-45.852 0.25391-1.168-22.145-19.492-39.809-41.918-39.809h-146.19c-21.586 0-39.406 16.359-41.75 37.332-5.125-0.92578-9.8125-3.5703-13.238-7.6172-4.3086-5.0898-6.1484-11.789-5.0469-18.367l31.109-185.77c2.4844-14.852 15.223-25.633 30.281-25.633 15.242 0 28.316 11.383 30.414 26.48 0.32812 2.3516 2.4766 3.9961 4.8594 3.6719 2.3555-0.32813 4-2.5039 3.6758-4.8594-2.6875-19.328-19.43-33.91-38.949-33.91-19.285 0-35.594 13.805-38.781 32.824l-31.109 185.77c-1.5195 9.082 1.0195 18.324 6.9688 25.355 5.0078 5.918 11.969 9.6719 19.535 10.727v68.531c0 23.176 18.855 42.031 42.031 42.031h146.18c23.176 0 42.031-18.855 42.031-42.031v-64.738c5.2578 2.7109 13.137 5.6445 22.68 5.6445 6.9062 0 14.68-1.582 22.934-5.8516v64.938c0 23.176 18.855 42.031 42.035 42.031h146.18c23.176 0 42.035-18.855 42.035-42.031l-0.003907-68.523c7.5703-1.0508 14.535-4.8086 19.543-10.727 5.9492-7.0312 8.4922-16.273 6.9688-25.355zm-279.88 290.38c0 18.426-14.992 33.414-33.418 33.414h-146.18c-18.426 0-33.418-14.988-33.418-33.414v-72.461c0-0.015625 0.007812-0.027344 0.007812-0.042969 0-0.011719-0.007812-0.019531-0.007812-0.035156 0.019531-18.41 15-33.383 33.414-33.383h146.18c18.426 0 33.418 14.992 33.418 33.418zm275.86 0c0 18.426-14.992 33.414-33.418 33.414h-146.18c-18.426 0-33.418-14.988-33.418-33.414v-72.504c0-18.426 14.992-33.418 33.418-33.418h146.18c18.426 0 33.418 14.992 33.418 33.418z"/>
  <path d="m165.99 342.09-30.848 30.848c-1.6836 1.6836-1.6836 4.4102 0 6.0898 0.83984 0.83984 1.9453 1.2617 3.0469 1.2617s2.2031-0.42188 3.0469-1.2617l30.848-30.848c1.6836-1.6836 1.6836-4.4102 0-6.0898-1.6836-1.6797-4.4102-1.6797-6.0938 0z"/>
  <path d="m209.02 350.44-30.848 30.848c-1.6836 1.6836-1.6836 4.4102 0 6.0898 0.83984 0.83984 1.9453 1.2617 3.0469 1.2617s2.2031-0.42188 3.0469-1.2617l30.848-30.848c1.6836-1.6836 1.6836-4.4102 0-6.0898-1.6875-1.6836-4.4102-1.6836-6.0938 0z"/>
  
  </g>
</svg>
